<svg viewBox="0 0 1029 1024" version="1.1" xmlns="http://www.w3.org/2000/svg" width="12" height="12"><path d="M939.776 46.545455H95.837091C46.219636 46.545455 0 94.626909 0 144.244364v618.891636C0 812.8 46.219636 861.090909 95.837091 861.090909h306.734545l115.2 115.153455L632.971636 861.090909h306.804364C989.44 861.090909 1024 812.8 1024 763.159273V662.341818l2.792727-3.490909 3.025455-518.446545C1029.818182 90.763636 989.44 46.545455 939.776 46.545455zM308.363636 515.863273a60.113455 60.113455 0 1 1 0-120.226909 60.113455 60.113455 0 0 1 0 120.226909z m209.454546 0a60.113455 60.113455 0 1 1 0-120.226909 60.113455 60.113455 0 0 1 0 120.226909z m209.454545 0a60.113455 60.113455 0 1 1 0-120.226909 60.113455 60.113455 0 0 1 0 120.226909z" fill="#155dff"></path></svg>